<?xml version="1.0" encoding="iso-8859-1"?>
<!-- Generator: Adobe Illustrator 19.0.0, SVG Export Plug-In . SVG Version: 6.00 Build 0)  -->
<svg version="1.1" id="Layer_1" xmlns="http://www.w3.org/2000/svg" xmlns:xlink="http://www.w3.org/1999/xlink" x="0px" y="0px"
	 viewBox="0 0 512 512" style="enable-background:new 0 0 512 512;" xml:space="preserve">
<circle style="fill:#324A5E;" cx="256" cy="256" r="256"/>
<path style="fill:#2B3B4E;" d="M503.899,320.128l-93.953-93.953l-275.194,39.595l-46.492,8.352l230.191,230.191
	C409.102,481.585,480.58,410.54,503.899,320.128z"/>
<path style="fill:#E2C89A;" d="M428.139,260.434c0,38.028-77.069,34.428-172.139,34.428s-172.139,3.6-172.139-34.428
	S160.93,174.887,256,174.887S428.139,222.406,428.139,260.434z"/>
<path style="fill:#CEB793;" d="M256,174.887c-0.191,0-0.383,0.003-0.574,0.005v119.97c0.191,0,0.383,0,0.574,0
	c95.07,0,172.139,3.6,172.139-34.428S351.07,174.887,256,174.887z"/>
<g>
	<path style="fill:#BFA077;" d="M173.582,243.741c7.49,0,13.562-24.288,13.562-54.25c0-2.057-0.031-4.084-0.086-6.082
		c-9.48,2.4-18.527,5.225-27.022,8.416C160.34,220.705,166.288,243.741,173.582,243.741z"/>
	<path style="fill:#BFA077;" d="M256,174.887c-5.81,0-11.548,0.183-17.21,0.524c0.071,37.785,7.747,68.33,17.21,68.33
		s17.139-30.546,17.21-68.33C267.548,175.07,261.81,174.887,256,174.887z"/>
</g>
<g>
	<path style="fill:#AD916F;" d="M256,174.887c-0.193,0-0.381,0.009-0.574,0.009v68.789c0.191,0.024,0.381,0.059,0.574,0.059
		c9.463,0,17.139-30.546,17.21-68.33C267.548,175.07,261.81,174.887,256,174.887z"/>
	<path style="fill:#AD916F;" d="M342.069,243.741c7.175,0,13.043-22.285,13.526-50.491c-8.475-3.346-17.51-6.341-27.026-8.894
		c-0.04,1.691-0.062,3.401-0.062,5.136C328.507,219.453,334.579,243.741,342.069,243.741z"/>
</g>
<g>
</g>
<g>
</g>
<g>
</g>
<g>
</g>
<g>
</g>
<g>
</g>
<g>
</g>
<g>
</g>
<g>
</g>
<g>
</g>
<g>
</g>
<g>
</g>
<g>
</g>
<g>
</g>
<g>
</g>
</svg>
