<?xml version="1.0" encoding="iso-8859-1"?>
<!-- Generator: Adobe Illustrator 19.0.0, SVG Export Plug-In . SVG Version: 6.00 Build 0)  -->
<svg version="1.1" id="Layer_1" xmlns="http://www.w3.org/2000/svg" xmlns:xlink="http://www.w3.org/1999/xlink" x="0px" y="0px"
	 viewBox="0 0 512 512" style="enable-background:new 0 0 512 512;" xml:space="preserve">
<circle style="fill:#FEE187;" cx="256" cy="256" r="256"/>
<path style="fill:#FFC61B;" d="M510.716,281.753L351.877,122.914L200.857,255.733l-54.777-54.777l-43.779,10.561l69.644,69.644
	l-51.347,45.158l23.412,23.412l-44.106,13.16l29.73,31.365l-17.542,5.916l109.523,109.523C232.865,511.205,244.338,512,256,512
	C388.692,512,497.8,411.045,510.716,281.753z"/>
<g>
	<path style="fill:#272525;" d="M164.054,403.868h-43.715c-6.12,0-11.08-4.961-11.08-11.08v-44.653c0-6.12,4.961-11.08,11.08-11.08
		h43.715c6.12,0,11.08,4.961,11.08,11.08v44.653C175.133,398.907,170.174,403.868,164.054,403.868z"/>
	<path style="fill:#272525;" d="M392.094,403.868h-43.715c-6.12,0-11.08-4.961-11.08-11.08v-44.653c0-6.12,4.961-11.08,11.08-11.08
		h43.715c6.12,0,11.08,4.961,11.08,11.08v44.653C403.175,398.907,398.214,403.868,392.094,403.868z"/>
</g>
<path style="fill:#FFFFFF;" d="M383.472,242.133H128.528l22.544-98.702c3.337-14.612,20.661-25.321,40.962-25.321h127.934
	c20.299,0,37.624,10.709,40.962,25.321L383.472,242.133z"/>
<path style="fill:#D0D1D3;" d="M360.929,143.431c-3.337-14.612-20.661-25.321-40.962-25.321h-65.115v124.023h128.621
	L360.929,143.431z"/>
<path style="fill:#386895;" d="M402.741,215.568c4.424,0,8.009-3.586,8.009-8.009c0-4.424-3.586-8.009-8.009-8.009h-24.064
	l-13.062-57.187c-3.846-16.837-23.043-29.056-45.647-29.056H192.034c-22.606,0-41.803,12.221-45.647,29.056l-13.062,57.187h-24.066
	c-4.424,0-8.009,3.586-8.009,8.009c0,4.424,3.586,8.009,8.009,8.009h20.406l-1.357,5.939L116.14,246.01
	c-7.449,14.998-11.326,31.535-11.326,48.304v48.916H407.19v-48.916c0-16.768-3.877-33.306-11.326-48.304l-12.169-24.505
	l-1.357-5.939h20.402V215.568z M155.757,144.499c2.81-12.305,18.406-21.585,36.276-21.585h127.933
	c17.87,0,33.468,9.278,36.276,21.585l17.063,74.707H138.693L155.757,144.499z"/>
<path style="fill:#273B7A;" d="M410.752,207.558c0-4.424-3.586-8.009-8.009-8.009h-24.064l-13.062-57.187
	c-3.846-16.837-23.043-29.056-45.647-29.056h-65.115v9.609h65.115c17.87,0,33.468,9.278,36.276,21.585l17.063,74.707H254.854V343.23
	H407.19v-48.916c0-16.768-3.877-33.306-11.326-48.304l-12.169-24.505l-1.357-5.939h20.406
	C407.164,215.568,410.752,211.982,410.752,207.558z"/>
<g>
	<path style="fill:#FFC61B;" d="M182.629,316.547v-2.381c0-26.084-20.849-47.228-46.566-47.228h-27.741
		c-2.319,8.907-3.51,18.106-3.51,27.377v22.231H182.629z"/>
	<path style="fill:#FFC61B;" d="M329.371,316.547v-2.381c0-26.084,20.849-47.228,46.566-47.228h27.741
		c2.319,8.907,3.51,18.106,3.51,27.377v22.231H329.371z"/>
</g>
<path style="fill:#273B7A;" d="M107.215,366.156h297.569c5.42,0,9.814-4.394,9.814-9.814v-16.45c0-5.42-4.394-9.814-9.814-9.814
	H107.215c-5.42,0-9.814,4.394-9.814,9.814v16.449C97.401,361.762,101.795,366.156,107.215,366.156z"/>
<path style="fill:#121149;" d="M404.785,330.076H254.852v36.08h149.933c5.42,0,9.814-4.394,9.814-9.814v-16.45
	C414.599,334.47,410.205,330.076,404.785,330.076z"/>
<g>
</g>
<g>
</g>
<g>
</g>
<g>
</g>
<g>
</g>
<g>
</g>
<g>
</g>
<g>
</g>
<g>
</g>
<g>
</g>
<g>
</g>
<g>
</g>
<g>
</g>
<g>
</g>
<g>
</g>
</svg>
