<?xml version="1.0" encoding="iso-8859-1"?>
<!-- Generator: Adobe Illustrator 19.0.0, SVG Export Plug-In . SVG Version: 6.00 Build 0)  -->
<svg version="1.1" id="Layer_1" xmlns="http://www.w3.org/2000/svg" xmlns:xlink="http://www.w3.org/1999/xlink" x="0px" y="0px"
	 viewBox="0 0 496.182 496.182" style="enable-background:new 0 0 496.182 496.182;" xml:space="preserve">
<path style="fill:#D8DBBA;" d="M248.094,0C111.074,0,0,111.063,0,248.091c0,137.012,111.074,248.091,248.094,248.091
	c137.012,0,248.088-111.079,248.088-248.091C496.182,111.063,385.106,0,248.094,0z"/>
<g>
	<path style="fill:#7CC6CE;" d="M247.492,26.465c-15.666,0-55.785,33.473-55.785,76.728c0,69.769,27.463,68.761,55.785,68.761
		c28.324,0,55.787,1.319,55.787-68.761C303.279,59.938,266.141,26.465,247.492,26.465z"/>
	<path style="fill:#7CC6CE;" d="M387.272,266.346c-3.762-22.791-14.67-43.626-40.965-95.561
		c-7.406-14.627-54.852-22.938-54.852-22.938s-38.621,21.752-43.365,21.752c-5.605,0-48.199-21.752-48.199-21.752
		s-42.785,8.23-50.018,22.938c-23.871,48.547-37.205,72.77-40.963,95.561c-3.764,22.789,2.98,136.447,2.98,136.447
		s6.588,0.22,14.039-1.313c7.449-1.535,10.504-5.698,10.504-5.698s2.021-107.23,5.244-120.67
		c3.223-13.44,26.904-48.023,26.904-48.023l11.291,88.928l-14.359,97.297c0,11.833,15.094,14.766,33.715,14.766h97.721
		c18.623,0,33.719-2.933,33.719-14.766l-14.363-97.297l11.295-88.928c0,0,23.68,34.583,26.902,48.023
		c3.223,13.439,5.244,120.67,5.244,120.67s2.41,3.067,9.861,5.698c7.451,2.629,14.682,1.313,14.682,1.313
		S391.035,289.135,387.272,266.346z"/>
</g>
<g>
	<path style="fill:#459AA3;" d="M168.795,210.832c-0.219-6.794-2.922-22.791-2.922-22.791s-0.875,25.42,2.506,39.047
		C168.379,227.088,169.014,217.624,168.795,210.832z"/>
	<path style="fill:#459AA3;" d="M330.164,188.041c0,0-2.701,15.997-2.92,22.791c-0.217,6.792,0.418,16.256,0.418,16.256
		C331.043,213.461,330.164,188.041,330.164,188.041z"/>
</g>
<path style="fill:#DCE9EA;" d="M269.635,191.431c0-8.047,2.801-27.493,2.801-27.493h-2.801c0,0-2.799,19.446-2.799,27.493
	c0,8.048,6.068,39.563,5.6,52.305c-0.467,12.741-2.801,26.151-2.801,26.151h2.801c0,0,2.334-13.41,2.803-26.151
	C275.703,230.994,269.635,199.479,269.635,191.431z"/>
<circle style="fill:#6FB8BC;" cx="270.801" cy="164.171" r="3.034"/>
<path style="fill:#DCE9EA;" d="M228.291,251.373c0.467-12.74,2.256-47.028,2.256-55.075s-3.5-32.36-3.5-32.36h-2.801
	c0,0,3.5,24.313,3.5,32.36s-1.789,42.335-2.256,55.075s2.178,27.071,2.178,27.071h2.801
	C230.469,278.445,227.824,264.113,228.291,251.373z"/>
<circle style="fill:#6FB8BC;" cx="225.411" cy="164.171" r="3.034"/>
<g>
	<path style="fill:#66A7AA;" d="M247.707,46.008c-23.176,0-41.969,19.872-41.969,56.774c0,36.901,41.969,66.817,41.969,66.817
		s41.973-29.916,41.973-66.817C289.68,65.88,270.891,46.008,247.707,46.008z"/>
	<polygon style="fill:#66A7AA;" points="231.371,154.841 246.248,204.903 249.092,204.903 263.967,154.841 	"/>
</g>
<rect x="246.251" y="204.901" style="fill:#66BBBF;" width="2.838" height="223.21"/>
<polygon style="fill:#EAE7DF;" points="247.225,207.034 247.225,428.111 248.194,428.111 248.194,207.047 "/>
<path style="fill:#E2E1E0;" d="M247.727,203.447c-1.33,0-2.408,3.023-2.408,5.358s1.078,3.097,2.408,3.097
	c1.332,0,2.41-0.762,2.41-3.097S249.059,203.447,247.727,203.447z"/>
<path style="fill:#D3D2D1;" d="M245.824,208.793c0,1.846,0.852,2.449,1.902,2.449c1.053,0,1.906-0.604,1.906-2.449H245.824z"/>
<path style="fill:#E2E1E0;" d="M246.125,209.012c0,1.846,0.852,2.449,1.904,2.449c1.052,0,1.904-0.604,1.904-2.449H246.125z"/>
<g>
</g>
<g>
</g>
<g>
</g>
<g>
</g>
<g>
</g>
<g>
</g>
<g>
</g>
<g>
</g>
<g>
</g>
<g>
</g>
<g>
</g>
<g>
</g>
<g>
</g>
<g>
</g>
<g>
</g>
</svg>
