<?xml version="1.0" encoding="UTF-8" standalone="no"?>
<!-- Generator: Adobe Illustrator 19.0.0, SVG Export Plug-In . SVG Version: 6.00 Build 0)  -->

<svg
   version="1.1"
   id="Layer_1"
   x="0px"
   y="0px"
   viewBox="0 0 504 504"
   style="enable-background:new 0 0 504 504;"
   xml:space="preserve"
   xmlns="http://www.w3.org/2000/svg" >
<circle
   style="fill:#e57300;fill-opacity:1"
   cx="252"
   cy="252"
   r="252"
   id="circle17180" /><circle
   style="fill:#ffa01a;fill-opacity:1;stroke-width:0.934372"
   cx="252"
   cy="252"
   r="235.46167"
   id="circle17180-7" />
<g
   id="g4965"
   transform="matrix(0.67277429,0,0,0.67277429,96.454584,96.454584)"
   style="fill:#ffffff;fill-opacity:1">
	<g
   id="g4963"
   style="fill:#ffffff;fill-opacity:1">
		<g
   id="g4955"
   style="fill:#ffffff;fill-opacity:1">
			<path
   d="M 76.7,121.9 135.2,451 c 1.1,6.6 7,11.4 13.6,11.4 h 168.6 c 6.6,0 12.5,-4.8 13.6,-11.4 l 58.6,-330.1 c -38,14.1 -94.6,22.4 -157.5,22.4 -41.2,0.1 -118.6,-6 -155.4,-21.4 z"
   id="path4953"
   style="fill:#ffffff;fill-opacity:1" />
		</g>
		<path
   d="M 233,72.6 C 331.3,72.6 384.8,48.8 384.8,36.3 384.8,23.8 331.3,0 233,0 134.7,0 81.2,23.9 81.2,36.3 c 0,12.5 53.6,36.3 151.8,36.3 z"
   id="path4957"
   style="fill:#ffffff;fill-opacity:1" />
		<g
   id="g4961"
   style="fill:#ffffff;fill-opacity:1">
			<path
   d="m 60.3,87.9 c 26.6,21.4 93.4,35.4 171.7,35.4 76.5,0 142.3,-13.5 170.1,-34.2 L 392.5,58.3 C 366.4,79 304.8,92.3 233,92.3 159.5,92.3 96.8,78.3 71.8,56.9 l -11.5,31"
   id="path4959"
   style="fill:#ffffff;fill-opacity:1" />
		</g>
	</g>
</g></svg>
