<?xml version="1.0" encoding="iso-8859-1"?>
<!-- Generator: Adobe Illustrator 19.0.0, SVG Export Plug-In . SVG Version: 6.00 Build 0)  -->
<svg version="1.1" id="Layer_1" xmlns="http://www.w3.org/2000/svg" xmlns:xlink="http://www.w3.org/1999/xlink" x="0px" y="0px"
	 viewBox="0 0 512 512" style="enable-background:new 0 0 512 512;" xml:space="preserve">
<circle style="fill:#324A5E;" cx="256" cy="256" r="256"/>
<path style="fill:#2B3B4E;" d="M261.477,511.931C400.331,509.016,512,395.554,512,256c0-2.944-0.067-5.872-0.167-8.794
	L390.396,125.769L282.434,268.067L102.416,352.87L261.477,511.931z"/>
<path style="fill:#FFD15D;" d="M378.008,126.062l-15.594,29.53c-0.798,1.512-2.115,2.684-3.708,3.303l-8.925,3.462
	c-26.772,10.385-47.754,31.882-57.318,58.959c-12.064,34.156-46.687,78.489-145.044,79.827
	c-18.846,0.257-36.607,8.871-48.292,23.661l0,0c-1.167,1.477-1.7,3.356-1.481,5.227l2.122,18.098
	c0.219,1.869,1.172,3.575,2.65,4.742l7.844,6.197c11.411,9.016,25.607,13.757,40.145,13.395
	c53.264-1.326,181.27-16.136,218.952-125.297c4.589-13.293,6.772-27.3,6.856-41.362l0.217-36.385
	c0.005-0.993,0.221-1.974,0.629-2.879l14.696-32.54c0.95-2.103,0.817-4.539-0.355-6.527l-1.003-1.701
	C387.575,120.987,380.602,121.151,378.008,126.062z"/>
<path style="fill:#F9B54C;" d="M122.63,350.517c53.264-1.326,181.27-16.136,218.952-125.297c4.589-13.293,6.773-27.3,6.856-41.362
	l0.126-20.99c0.409-0.165,0.805-0.35,1.217-0.51l8.925-3.463c1.593-0.617,2.91-1.791,3.708-3.303l15.594-29.531
	c2.593-4.911,9.568-5.075,12.388-0.291l1.003,1.701c1.172,1.989,1.305,4.424,0.355,6.527l-14.698,32.54
	c-0.409,0.905-0.622,1.886-0.629,2.879l-0.217,36.385c-0.084,14.064-2.267,28.069-6.856,41.362
	C331.671,356.324,203.666,371.134,150.402,372.46c-14.538,0.362-28.734-4.379-40.145-13.395l-7.844-6.197
	c-1.477-1.167-2.429-2.872-2.65-4.742l-0.167-1.431C106.913,349.387,114.719,350.713,122.63,350.517z"/>
<g>
</g>
<g>
</g>
<g>
</g>
<g>
</g>
<g>
</g>
<g>
</g>
<g>
</g>
<g>
</g>
<g>
</g>
<g>
</g>
<g>
</g>
<g>
</g>
<g>
</g>
<g>
</g>
<g>
</g>
</svg>
