<?xml version="1.0" encoding="UTF-8" standalone="no"?>
<!-- Generator: Adobe Illustrator 19.0.0, SVG Export Plug-In . SVG Version: 6.00 Build 0)  -->

<svg
   version="1.1"
   id="Layer_1"
   x="0px"
   y="0px"
   viewBox="0 0 504 504"
   style="enable-background:new 0 0 504 504;"
   xml:space="preserve"
   xmlns="http://www.w3.org/2000/svg">
<circle
   style="fill:#e57300;fill-opacity:1"
   cx="252"
   cy="252"
   r="252"
   id="circle17180" /><circle
   style="fill:#ffa01a;fill-opacity:1;stroke-width:0.934372"
   cx="252"
   cy="252"
   r="235.46167"
   id="circle17180-7" />
<g
   id="g22460"
   transform="matrix(0.92544243,0,0,0.92544243,18.788508,18.788508)"><path
     d="M 359.98725,392.48214 343.89912,271.8147 h 0.44769 c 4.72452,0 8.55438,-3.82986 8.55438,-8.55438 V 89.318231 c 0,-3.005727 -1.57124,-5.779691 -4.13936,-7.32718 -2.56883,-1.548929 -5.75666,-1.640339 -8.4061,-0.241121 -33.35739,17.601069 -54.23913,52.20868 -54.23913,89.93575 v 73.34234 c 0,14.79184 11.99484,26.78596 26.78811,26.78596 h 2.02829 l -16.08813,120.66744 c -1.16961,8.80629 1.51366,17.70543 7.36173,24.38986 5.86031,6.68588 14.32255,10.52653 23.20946,10.52653 8.88619,0 17.34915,-3.84065 23.20946,-10.52653 5.84807,-6.68371 8.53134,-15.58213 7.36173,-24.38914 z"
     id="path20770"
     style="fill:#ffffff;fill-opacity:1;stroke-width:0.719762" /><path
     d="m 225.9387,76.60147 c -6.49009,0 -11.7422,5.252106 -11.7422,11.741483 V 153.93346 H 202.4543 V 88.342953 c 0,-6.489377 -5.25211,-11.741483 -11.7422,-11.741483 -6.4901,0 -11.74149,5.252106 -11.74149,11.741483 v 65.590507 h -11.7422 V 88.342953 c -7.2e-4,-6.489377 -5.25283,-11.741483 -11.7422,-11.741483 -6.49082,0 -11.74221,5.252106 -11.74221,11.741483 v 65.590507 10.73381 29.65349 c 0,17.41825 14.11526,31.53351 31.53351,31.53351 h 2.60266 l -18.50653,166.53574 c -0.98607,8.90922 1.86851,17.81987 7.84253,24.50575 5.98627,6.68443 14.52913,10.50277 23.49665,10.50277 8.96751,0 17.50965,-3.81834 23.49664,-10.50277 5.97474,-6.68588 8.82932,-15.59653 7.84253,-24.50575 L 203.54474,225.85499 h 2.60338 c 17.41753,0 31.53351,-14.11526 31.53351,-31.53351 V 164.66799 153.93418 88.342953 C 237.68091,81.853576 232.4288,76.60147 225.9387,76.60147 Z"
     id="path20772"
     style="fill:#ffffff;fill-opacity:1;stroke-width:0.719762" /></g></svg>
