<?xml version="1.0" encoding="UTF-8" standalone="no"?>
<!-- Generator: Adobe Illustrator 19.0.0, SVG Export Plug-In . SVG Version: 6.00 Build 0)  -->

<svg
   version="1.1"
   id="Layer_1"
   x="0px"
   y="0px"
   viewBox="0 0 504 504"
   style="enable-background:new 0 0 504 504;"
   xml:space="preserve"
   xmlns="http://www.w3.org/2000/svg" >
<circle
   style="fill:#e57300;fill-opacity:1"
   cx="252"
   cy="252"
   r="252"
   id="circle17180" /><circle
   style="fill:#ffa01a;fill-opacity:1;stroke-width:0.934372"
   cx="252"
   cy="252"
   r="235.46167"
   id="circle17180-7" />
<g
   id="g154"
   transform="matrix(6.5384934,0,0,6.5384934,92.860124,92.858784)"
   style="fill:#ffffff;fill-opacity:1">
	<g
   id="g152"
   style="fill:#ffffff;fill-opacity:1">
		<path
   style="fill:#ffffff;fill-opacity:1"
   d="M 38.222,34.407 C 37.033,33.602 35.81,32.845 34.626,32.032 32.741,30.739 30.923,29.356 29.053,28.044 23.605,24.217 17.582,22.543 10.99,22.059 9.475,21.948 7.965,21.956 6.46,22.081 c -1.101,0.092 -1.992,0.291 -2.001,0.362 -0.008,0.065 -0.015,0.13 -0.015,0.13 -0.079,0.771 -0.138,1.751 -0.113,2.855 0.041,0.868 0.133,1.802 0.316,2.779 0.014,0.087 0.276,1.559 1.433,2.618 0.815,0.746 1.765,0.935 1.787,0.937 l 0.04,0.005 c 0.06,0.01 6.48,0.61 11.72,1.69 0.06,0.01 6.76,1.61 9.16,2.69 0.181,0.069 4.511,1.899 7.74,1.899 0.6,0 1.129,-0.063 1.586,-0.19 0.854,-0.234 1.684,-0.996 1.969,-1.355 0.285,-0.359 0.461,-0.694 0.451,-0.705 -0.011,-0.012 -0.567,-0.266 -1.195,-0.654 -0.38,-0.233 -0.748,-0.485 -1.116,-0.735 z"
   id="path148-3" />
		<path
   style="fill:#ffffff;fill-opacity:1"
   d="M 48.462,32.89 C 47.956,32.033 46.8,30.9 45.78,30.476 v -10e-4 c -0.621,-0.258 -1.298,-0.515 -2.022,-0.753 -2.394,-0.791 -5.312,-1.385 -8.377,-1.164 -1.103,0.079 -1.16,-0.109 -0.089,-0.379 1.873,-0.47 4.977,-0.859 8.688,0.18 0.456,0.131 0.92,0.282 1.394,0.459 0.759,0.281 1.022,-0.274 0.511,-1.254 -0.228,-0.435 -0.501,-0.928 -0.826,-1.465 -0.571,-0.945 -1.908,-2.051 -2.968,-2.362 -2.907,-0.854 -6.934,-1.115 -11.821,0.904 -0.118,0.045 -0.237,0.094 -0.356,0.145 -0.196,0.084 -0.26,0.075 -0.141,-0.021 0.061,-0.048 0.135,-0.105 0.221,-0.169 1.268,-0.974 5.195,-3.488 10.713,-2.434 1.084,0.207 1.375,-0.198 0.627,-1.011 -0.479,-0.521 -0.994,-1.046 -1.549,-1.57 -0.802,-0.759 -2.381,-1.487 -3.483,-1.532 -2.687,-0.111 -6.091,0.403 -9.818,2.517 -0.961,0.545 -1.134,0.355 -0.29,-0.356 1.551,-1.307 4.387,-3.062 8.549,-3.222 1.104,-0.043 1.279,-0.491 0.351,-1.088 -0.711,-0.457 -1.46,-0.899 -2.25,-1.322 -0.974,-0.521 -2.688,-0.877 -3.78,-0.704 -2.646,0.418 -5.724,1.604 -8.616,4.404 -0.793,0.768 -0.962,0.655 -0.305,-0.233 1.167,-1.577 3.338,-3.822 6.74,-4.853 1.057,-0.32 1.188,-0.721 0.229,-1.032 -0.567,-0.184 -1.151,-0.358 -1.752,-0.519 0,0 -0.331,-0.112 -0.92,-0.262 -0.512,-0.13 -1.804,0.003 -2.831,0.409 -2.333,0.921 -4.887,2.529 -7.1,5.319 -0.686,0.865 -0.926,0.756 -0.421,-0.226 0.795,-1.546 2.346,-3.727 5.208,-5.274 0.972,-0.525 0.932,-0.929 -0.172,-0.963 -0.434,-0.013 -0.882,-0.016 -1.344,-0.005 -1.104,0.026 -2.779,0.569 -3.67,1.223 -1.602,1.176 -3.313,2.824 -4.954,5.135 -0.639,0.901 -0.812,0.82 -0.336,-0.177 0.547,-1.145 1.399,-2.659 2.602,-4.081 0.714,-0.843 0.517,-1.226 -0.521,-0.847 -0.523,0.191 -1.047,0.407 -1.57,0.652 -1,0.469 -2.371,1.603 -3.025,2.492 C 5.698,15.862 5.1,16.806 4.55,17.877 4.045,18.859 3.863,18.806 4.215,17.759 4.326,17.429 4.459,17.07 4.619,16.692 5.05,15.675 4.817,15.464 4.027,16.235 c -1.278,1.246 -2.49,2.752 -3.589,4.575 0,0 -0.223,0.334 -0.408,0.745 -0.193,0.428 0.574,0.473 1.657,0.256 1.222,-0.245 2.619,-0.469 2.828,-0.505 0.18,-0.031 0.361,-0.048 0.541,-0.076 2.159,-0.329 4.333,-0.416 6.515,-0.256 6.591,0.484 12.615,2.158 18.063,5.985 1.869,1.313 3.689,2.696 5.572,3.989 1.186,0.813 2.408,1.568 3.597,2.375 0.739,0.502 1.483,1.008 2.292,1.367 0.398,0.176 0.811,0.33 1.255,0.407 1.79,0.315 3.431,-0.116 5.116,-0.429 1.084,-0.201 1.507,-0.919 0.996,-1.778 z"
   id="path150" />
	</g>
</g></svg>
