<?xml version="1.0" encoding="iso-8859-1"?>
<!-- Generator: Adobe Illustrator 19.0.0, SVG Export Plug-In . SVG Version: 6.00 Build 0)  -->
<svg version="1.1" id="Layer_1" xmlns="http://www.w3.org/2000/svg" xmlns:xlink="http://www.w3.org/1999/xlink" x="0px" y="0px"
	 viewBox="0 0 128.5 128.5" style="enable-background:new 0 0 128.5 128.5;" xml:space="preserve">
<g>
	<g>
		<circle style="fill:#EF8D6F;" cx="64.25" cy="64.25" r="64.25"/>
	</g>
	<path style="fill:#D8D8D8;" d="M105,87.75c0,2.875-2.161,5.25-5.037,5.25H31.659c-2.875,0-5.206-2.353-5.206-5.228L20.83,37.239
		c0-2.875,2.331-5.239,5.206-5.239h73.927c2.875,0,5.037,2.375,5.037,5.25V87.75z"/>
	<path style="fill:#EAEAEA;" d="M63,93H31.763C28.888,93,21,90.399,21,87.524V37.476C21,34.601,23.265,32,26.141,32H63"/>
	<path style="fill:#4A7AAF;" d="M99,82.638C99,85.047,97.047,87,94.638,87H31.362C28.953,87,27,85.047,27,82.638V41.362
		C27,38.953,28.953,37,31.362,37h63.276C97.047,37,99,38.953,99,41.362V82.638z"/>
	<path style="fill:#EAEAEA;" d="M109.855,84c0,7-3.108,9-6.942,9H23.086c-3.834,0-6.942-2-6.942-9H63
		C75.148,84,109.855,84,109.855,84z"/>
	<path style="fill:#F7F7F7;" d="M63,93H23.086c-3.834,0-6.942-2-6.942-9H63"/>
	<path style="fill:#FCFCFC;" d="M63.442,46.145c7.568,0,13.703,6.135,13.703,13.703S71.01,73.551,63.442,73.551
		s-13.703-6.135-13.703-13.703S55.874,46.145,63.442,46.145 M63.442,44.377c-8.531,0-15.471,6.94-15.471,15.471
		s6.94,15.471,15.471,15.471s15.471-6.94,15.471-15.471S71.973,44.377,63.442,44.377L63.442,44.377z"/>
	<path style="fill:#FCFCFC;" d="M59,51.521l6.555,3.874l6.549,3.874l-6.552,3.874L59,67.017v-7.748V52 M59.022,49.753
		c-0.302,0-0.731,0.077-1.002,0.232C57.467,50.299,57,50.886,57,51.521v7.748v7.748c0,0.635,0.467,1.221,1.019,1.536
		c0.272,0.155,0.637,0.232,0.939,0.232c0.312,0,0.655-0.082,0.932-0.247l6.56-3.874l6.552-3.874
		c0.538-0.318,0.871-0.897,0.871-1.521c0-0.625-0.328-1.203-0.866-1.521l-6.543-3.874L59.921,50
		C59.644,49.835,59.333,49.753,59.022,49.753L59.022,49.753z"/>
</g>
<g>
</g>
<g>
</g>
<g>
</g>
<g>
</g>
<g>
</g>
<g>
</g>
<g>
</g>
<g>
</g>
<g>
</g>
<g>
</g>
<g>
</g>
<g>
</g>
<g>
</g>
<g>
</g>
<g>
</g>
</svg>
