<?xml version="1.0" encoding="iso-8859-1"?>
<!-- Generator: Adobe Illustrator 19.0.0, SVG Export Plug-In . SVG Version: 6.00 Build 0)  -->
<svg version="1.1" id="Layer_1" xmlns="http://www.w3.org/2000/svg" xmlns:xlink="http://www.w3.org/1999/xlink" x="0px" y="0px"
	 viewBox="0 0 206.49 206.49" style="enable-background:new 0 0 206.49 206.49;" xml:space="preserve">
<g>
	<g>
		<circle style="fill:#E54754;" cx="103.245" cy="103.245" r="103.245"/>
		<path style="fill:#D83D50;" d="M103.245,0L103.245,0v206.49l0,0c57.022,0,103.245-46.224,103.245-103.245S160.266,0,103.245,0z"/>
	</g>
	<g>
		<g>
			<path style="fill:#FFFFFF;" d="M171.173,137.19c-0.644-4.266-6.855-44.905-11.522-58.13
				c-4.747-13.449-16.018-14.495-19.359-14.495c-0.409,0-0.712,0.015-0.89,0.027h-18.3v-4.021c0.054-0.897,0.131-5.119-2.791-8.291
				c-1.99-2.159-4.808-3.254-8.375-3.254h-5.351h-2.679h-5.351c-3.567,0-6.386,1.095-8.375,3.254
				c-2.922,3.172-2.844,7.394-2.792,8.291v4.021H67.089c-0.178-0.013-0.481-0.027-0.89-0.027c-3.341,0-14.612,1.046-19.359,14.495
				c-4.667,13.225-10.878,53.864-11.522,58.13c-0.579,1.706-2.448,8.249,0.989,13.215c2.282,3.296,6.195,4.967,11.63,4.967h110.618
				c5.436,0,9.348-1.671,11.63-4.967C173.62,145.439,171.752,138.896,171.173,137.19z M92.019,55.817
				c0.961-1.042,2.487-1.57,4.536-1.57h5.351h2.679h5.351c2.048,0,3.575,0.528,4.536,1.57c1.567,1.702,1.421,4.426,1.418,4.452
				l-0.009,0.214v4.109H90.609v-4.109L90.6,60.27C90.598,60.243,90.451,57.52,92.019,55.817z M164.945,146.779
				c-1.021,1.475-3.171,2.222-6.391,2.222H47.936c-3.211,0-5.359-0.743-6.383-2.21c-1.601-2.293-0.648-6.347-0.15-7.703l0.119-0.315
				l0.05-0.334c0.066-0.44,6.652-44.159,11.275-57.258c3.263-9.246,10.424-10.244,13.351-10.244c0.263,0,0.432,0.01,0.459,0.013
				l0.153,0.015h72.714l0.284-0.014c0.05-0.004,0.219-0.014,0.482-0.014c2.927,0,10.088,0.998,13.351,10.244
				c4.623,13.097,11.209,56.818,11.275,57.258l0.05,0.334l0.119,0.315C165.56,140.347,166.55,144.46,164.945,146.779z"/>
			<path style="fill:#FFFFFF;" d="M103.244,73.726c-19.965,0-36.207,16.242-36.207,36.207s16.242,36.207,36.207,36.207
				s36.207-16.242,36.207-36.207S123.209,73.726,103.244,73.726z M103.244,140.14c-16.656,0-30.207-13.551-30.207-30.207
				s13.551-30.207,30.207-30.207s30.207,13.551,30.207,30.207S119.901,140.14,103.244,140.14z"/>
			<polygon style="fill:#FFFFFF;" points="110.155,89.618 96.333,89.618 96.333,103.021 82.93,103.021 82.93,116.844 
				96.333,116.844 96.333,130.246 110.155,130.246 110.155,116.844 123.558,116.844 123.558,103.021 110.155,103.021 			"/>
		</g>
		<g>
			<path style="fill:#F4CED3;" d="M171.173,137.19c-0.644-4.266-6.855-44.905-11.522-58.13
				c-4.747-13.449-16.018-14.495-19.359-14.495c-0.409,0-0.712,0.015-0.89,0.027h-18.3v-4.021c0.054-0.897,0.131-5.119-2.791-8.291
				c-1.99-2.159-4.808-3.254-8.375-3.254h-5.351h-1.339v5.221h1.339h5.351c2.048,0,3.575,0.528,4.536,1.57
				c1.567,1.702,1.421,4.426,1.418,4.452l-0.009,0.214v4.109h-12.636v6.371h36.28l0.284-0.014c0.05-0.004,0.219-0.014,0.482-0.014
				c2.927,0,10.088,0.998,13.351,10.244c4.623,13.097,11.209,56.818,11.275,57.258l0.05,0.334l0.119,0.315
				c0.473,1.259,1.464,5.372-0.142,7.691c-1.021,1.475-3.171,2.222-6.391,2.222h-55.309v6.371h55.309
				c5.436,0,9.348-1.671,11.63-4.967C173.62,145.439,171.752,138.896,171.173,137.19z"/>
			<path style="fill:#F4CED3;" d="M103.244,73.726L103.244,73.726l-0.001,6l0,0c16.657,0,30.208,13.551,30.208,30.207
				S119.9,140.14,103.244,140.14h-0.001v6l0,0c19.965,0,36.208-16.242,36.208-36.207S123.209,73.726,103.244,73.726z"/>
			<polygon style="fill:#F4CED3;" points="110.155,103.021 110.155,89.618 103.245,89.618 103.245,130.246 110.155,130.246 
				110.155,116.844 123.558,116.844 123.558,103.021 			"/>
		</g>
	</g>
</g>
<g>
</g>
<g>
</g>
<g>
</g>
<g>
</g>
<g>
</g>
<g>
</g>
<g>
</g>
<g>
</g>
<g>
</g>
<g>
</g>
<g>
</g>
<g>
</g>
<g>
</g>
<g>
</g>
<g>
</g>
</svg>
