<?xml version="1.0" encoding="UTF-8" standalone="no"?>
<!-- Generator: Adobe Illustrator 19.0.0, SVG Export Plug-In . SVG Version: 6.00 Build 0)  -->

<svg
   version="1.1"
   id="Layer_1"
   x="0px"
   y="0px"
   viewBox="0 0 504 504"
   style="enable-background:new 0 0 504 504;"
   xml:space="preserve"
   xmlns="http://www.w3.org/2000/svg" >
<circle
   style="fill:#008099;fill-opacity:1"
   cx="252"
   cy="252"
   r="252"
   id="circle17180" /><circle
   style="fill:#14adcc;fill-opacity:1;stroke-width:0.934372"
   cx="252"
   cy="252"
   r="235.46167"
   id="circle17180-7" />
<path
   d="M 327.3214,97.611935 H 176.6786 c -15.69548,0 -28.46533,12.769845 -28.46533,28.465335 v 251.84546 c 0,15.69615 12.76985,28.46534 28.46533,28.46534 h 150.6428 c 15.69548,0 28.46533,-12.76985 28.46533,-28.46534 V 126.07727 c 0,-15.69549 -12.76985,-28.465335 -28.46533,-28.465335 z M 168.188,154.76432 H 335.812 V 349.17443 H 168.188 Z m 8.4906,-37.17765 h 150.6428 c 4.68141,0 8.4906,3.80918 8.4906,8.4906 v 15.37056 H 168.188 v -15.37056 c 0,-4.68142 3.80919,-8.4906 8.4906,-8.4906 z M 327.3214,386.41333 H 176.6786 c -4.68141,0 -8.4906,-3.80918 -8.4906,-8.4906 v -15.43114 h 167.624 v 15.43114 c 0,4.68208 -3.80919,8.4906 -8.4906,8.4906 z"
   id="path10467"
   style="fill:#ffffff;fill-opacity:1;stroke-width:0.665825" /><path
   d="m 239.01709,136.52206 h 25.96582 c 3.67669,0 6.65825,-2.9809 6.65825,-6.65825 0,-3.67735 -2.98156,-6.65825 -6.65825,-6.65825 h -25.96582 c -3.67669,0 -6.65825,2.9809 -6.65825,6.65825 0,3.67735 2.98156,6.65825 6.65825,6.65825 z"
   id="path10469"
   style="fill:#ffffff;fill-opacity:1;stroke-width:0.665825" /><path
   d="m 252.002,367.61977 c -1.75844,0 -3.46895,0.70577 -4.70738,1.95086 -1.24509,1.23844 -1.95087,2.9496 -1.95087,4.70738 0,1.75112 0.70578,3.46895 1.95087,4.70738 1.23843,1.23843 2.9496,1.95087 4.70738,1.95087 1.75112,0 3.46894,-0.71244 4.70671,-1.95087 1.23844,-1.23843 1.95153,-2.95626 1.95153,-4.70738 0,-1.75778 -0.71243,-3.46894 -1.95153,-4.70738 -1.23777,-1.24509 -2.95559,-1.95086 -4.70671,-1.95086 z"
   id="path10471"
   style="fill:#ffffff;fill-opacity:1;stroke-width:0.665825" /><path
   id="path11503"
   style="fill:#ffffff;fill-opacity:1;stroke:#fff6f6;stroke-opacity:1"
   d="m 212.17578,195.37695 c -5.37578,9.04161 -10.90201,17.99956 -16.15364,27.11346 -1.90744,4.25667 -1.12264,9.49718 1.79028,13.11173 11.28586,16.89002 24.14856,32.84471 39.2942,46.44062 6.59708,5.98529 13.64467,11.63026 20.78986,16.83029 4.16875,3.00024 8.3756,5.95854 12.71663,8.70313 4.17482,2.29752 9.58888,1.7644 13.41567,-0.99998 8.21136,-4.93038 16.43733,-9.83155 24.60208,-14.79886 -5.89662,-12.50429 -15.95899,-23.04136 -28.25977,-29.38086 -3.13919,4.16871 -6.21961,8.38821 -9.33398,12.57813 -10.24248,-8.04517 -20.5655,-16.17119 -29.0613,-26.11491 -4.50611,-5.13542 -8.67796,-10.54913 -12.96019,-15.86947 4.17837,-3.15305 8.43318,-6.20361 12.5918,-9.38281 -5.42835,-10.48226 -13.89883,-19.35221 -24.03096,-25.3947 -1.75024,-1.02783 -3.56216,-2.01845 -5.40068,-2.83577 z" /></svg>
