<?xml version="1.0" encoding="UTF-8" standalone="no"?>
<!-- Generator: Adobe Illustrator 19.0.0, SVG Export Plug-In . SVG Version: 6.00 Build 0)  -->

<svg
   version="1.1"
   id="Layer_1"
   x="0px"
   y="0px"
   viewBox="0 0 368.666 368.666"
   style="enable-background:new 0 0 368.666 368.666;"
   sodipodi="selected_icon.svg"
   xmlns="http://www.w3.org/2000/svg">
  <sodipodi
     id="namedview153"
     pagecolor="#ffffff"
     bordercolor="#999999"
     borderopacity="1"
     showgrid="false" />
  <sodipodi
     id="namedview153"
     pagecolor="#ffffff"
     bordercolor="#999999"
     borderopacity="1" />
  <defs
     id="defs190" />
  <sodipodi
     id="namedview188"
     pagecolor="#ffffff"
     bordercolor="#999999"
     borderopacity="1"
     showgrid="false" />
  <path
     d="M 184.333,0 C 102.01,0 35.036,66.974 35.036,149.297 c 0,33.969 11.132,65.96 32.193,92.515 27.27,34.383 106.572,116.021 109.934,119.479 l 7.169,7.375 7.17,-7.374 c 3.364,-3.46 82.69,-85.116 109.964,-119.51 21.042,-26.534 32.164,-58.514 32.164,-92.485 C 333.63,66.974 266.656,0 184.333,0 Z"
     id="path148"
     style="display:inline;fill:#af0000;fill-opacity:1"
     sodipodi="sscccccss" />
  <path
     id="path1006"
     style="display:inline;fill:#e53d3d;fill-opacity:1"
     d="m 182.44458,2.0117188 c -3.10836,0.041922 -6.28042,0.1807936 -9.4414,0.4179687 -0.75061,0.069568 -1.67089,0.1320141 -2.43907,0.2094959 -9.57067,0.8885387 -19.05207,2.7252791 -28.26406,5.4682385 -1.47155,0.4464718 -3.15082,0.9670213 -4.68865,1.4883663 -6.94541,2.3191428 -13.81738,5.2318648 -20.26643,8.5350708 -24.097248,12.33127 -44.666571,31.430638 -58.763989,54.537436 -3.171402,5.17643 -6.012985,10.553613 -8.521166,16.081705 -0.272615,0.610182 -0.643684,1.42845 -0.91447,2.070594 -4.270801,9.823366 -7.448043,20.120206 -9.472249,30.638386 -0.727281,3.80658 -1.340867,7.82769 -1.762539,11.75427 -0.230098,2.08132 -0.394586,4.01545 -0.535189,6.05038 -0.17623,2.59023 -0.282704,5.19956 -0.319889,7.72244 -0.06351,3.92085 0.03506,7.85698 0.268008,11.67409 0.569238,9.22452 1.99673,18.3967 4.285156,27.35156 0.439067,1.70622 0.957234,3.60726 1.487258,5.37285 4.940551,16.69707 13.060665,32.59503 23.628841,46.51322 6.136881,7.97006 12.74992,15.55886 19.373362,23.1246 18.028636,20.42973 36.635916,40.30331 55.355266,60.1129 14.201,14.98742 28.47418,29.87049 42.87793,44.66159 23.53042,-24.18173 46.8496,-48.64135 69.77344,-73.35352 13.65902,-14.81216 27.29277,-29.69793 40.26805,-45.13462 5.11049,-6.08621 10.04701,-12.3387 14.30327,-19.06025 2.57432,-4.01943 4.9489,-8.16187 7.10055,-12.36763 1.683,-3.30832 3.3823,-6.95768 4.84687,-10.51879 1.43978,-3.47587 2.73676,-7.01053 3.89923,-10.58863 2.3264,-7.18022 4.13285,-14.71943 5.30846,-22.24629 0.61062,-3.89359 1.05327,-7.71341 1.35609,-11.66475 0.30168,-3.88436 0.43907,-7.74108 0.44214,-11.67724 -0.008,-2.6433 -0.0703,-5.12498 -0.20971,-7.77178 -0.11454,-2.15659 -0.27109,-4.21557 -0.4688,-6.28188 -0.43758,-4.59311 -1.09678,-9.16458 -1.96529,-13.69595 -0.35418,-1.83589 -0.78291,-3.86779 -1.22954,-5.76604 -2.03348,-8.66943 -4.86147,-17.151761 -8.43452,-25.308182 -0.27543,-0.623499 -0.63175,-1.437177 -0.92612,-2.065403 -11.37462,-24.97788 -29.9008,-46.620343 -52.77444,-61.779513 -4.58454,-3.05129 -9.44889,-5.895535 -14.28187,-8.373834 -8.00195,-4.104951 -16.38164,-7.471232 -25,-10.0410155 -1.50987,-0.4481507 -3.23776,-0.9375522 -4.84597,-1.3528346 -7.86221,-2.0537505 -15.89678,-3.4407638 -23.98996,-4.1666967 -0.74007,-0.053967 -1.66882,-0.1438595 -2.44034,-0.1942474 -3.03544,-0.2196246 -6.05608,-0.3420473 -9.04286,-0.3773137 -1.19186,-0.012849 -2.38354,-0.00968 -3.5754,0.00125 z" />
  <path
     d="m 184.33301,81.946181 c -30.48711,0 -55.28972,24.802609 -55.28972,55.289719 0,30.4871 24.80324,55.28971 55.28972,55.28971 30.48647,0 55.2897,-24.80323 55.2897,-55.28971 0,-30.48648 -24.8026,-55.289719 -55.2897,-55.289719 z"
     id="path150"
     style="display:inline;fill:#ffffff;fill-opacity:1;stroke-width:0.625633"
     sodipodi="sssss" />
</svg>
