<?xml version="1.0" encoding="UTF-8" standalone="no"?>
<!-- Generator: Adobe Illustrator 19.0.0, SVG Export Plug-In . SVG Version: 6.00 Build 0)  -->

<svg
   version="1.1"
   id="Layer_1"
   x="0px"
   y="0px"
   viewBox="0 0 504 504"
   style="enable-background:new 0 0 504 504;"
   xml:space="preserve"
   xmlns="http://www.w3.org/2000/svg"  >
<circle
   style="fill:#4e9900;fill-opacity:1"
   cx="252"
   cy="252"
   r="252"
   id="circle17180" /><circle
   style="fill:#67cc00;fill-opacity:1;stroke-width:0.934372"
   cx="252"
   cy="252"
   r="235.46167"
   id="circle17180-7" />
<g
   id="g154"
   transform="matrix(0.65158264,0,0,0.65158264,90.722532,90.722483)"
   style="fill:#ffffff;fill-opacity:1">
	<g
   id="g152"
   style="fill:#ffffff;fill-opacity:1">
		<circle
   style="fill:#ffffff;fill-opacity:1"
   cx="305.58099"
   cy="55.497002"
   r="55.497002"
   id="circle148" />
		<path
   style="fill:#ffffff;fill-opacity:1"
   d="m 444.11,190.867 c -49.593,-5.101 -97.676,-58.767 -109.777,-66.199 -7.425,-5.36 -16.205,-8.87 -24.604,-10.18 0,0 -5.97,-1.239 -12.14,-0.558 -5.905,0.656 -14.884,0.961 -28.031,10.761 -0.952,0.592 -7.668,6.439 -9.786,8.987 -16.363,16.961 -61.705,67.118 -84.275,123.857 -3.19,8.06 -1.166,16.815 4.39,22.72 l -26.506,47.23 -37.339,-20.976 c -4.457,-2.508 -10.114,-0.942 -12.618,3.521 L 32.751,434.91 c -2.502,4.458 -0.919,10.14 3.549,12.622 l 28.267,15.896 c -4.5,8.01 -3.417,18.372 3.381,25.26 8.197,8.367 21.664,8.469 30.017,0.248 7.764,-7.659 8.398,-19.82 1.819,-28.205 l 38.59,-67.704 27.035,-48.174 33.51,-58.091 c 7.246,-1.153 13.74,-5.983 16.658,-13.31 9.552,-24.051 24.344,-47.223 38.629,-66.425 l 6.732,77.365 c 0.78,9.088 4.566,16.712 10.178,22.73 -17.356,31.474 -64.064,117.541 -80.927,146.782 -7.554,13.123 -3.064,29.89 10.051,37.454 4.924,2.822 10.373,3.985 15.65,3.604 8.777,-0.635 17.082,-5.484 21.801,-13.67 15.711,-27.236 56.688,-109.896 74.661,-140.967 14.409,23.945 38.959,68.009 70.104,138.375 4.528,10.254 14.563,16.331 25.096,16.331 3.725,0 7.479,-0.749 11.095,-2.354 13.84,-6.123 20.103,-22.313 13.964,-36.151 -36.728,-83.039 -63.771,-129.136 -78.754,-153.413 5.922,-7.434 9.489,-16.675 8.556,-27.519 l -6.372,-73.279 c 18.457,14.737 42.541,27.152 83.663,31.404 0.764,0.082 1.504,0.119 2.252,0.119 10.892,0 20.257,-8.242 21.401,-19.321 1.198,-11.846 -7.403,-22.432 -19.247,-23.65 z M 82.647,482.22 c -4.27,0 -7.733,-3.462 -7.733,-7.729 0,-4.267 3.463,-7.729 7.733,-7.729 4.265,0 7.729,3.461 7.729,7.729 -0.002,4.27 -3.463,7.729 -7.729,7.729 z"
   id="path150" />
	</g>
</g></svg>
