<?xml version="1.0" encoding="UTF-8" standalone="no"?>
<!-- Generator: Adobe Illustrator 19.0.0, SVG Export Plug-In . SVG Version: 6.00 Build 0)  -->

<svg
   version="1.1"
   id="Layer_1"
   x="0px"
   y="0px"
   viewBox="0 0 504 504"
   style="enable-background:new 0 0 504 504;"
   xml:space="preserve"
   xmlns="http://www.w3.org/2000/svg" >
<circle
   style="fill:#e57300;fill-opacity:1"
   cx="252"
   cy="252"
   r="252"
   id="circle17180" /><circle
   style="fill:#ffa01a;fill-opacity:1;stroke-width:0.934372"
   cx="252"
   cy="252"
   r="235.46167"
   id="circle17180-7" />
<g
   id="g3409"
   transform="matrix(0.76156922,0,0,0.76156922,101.26927,101.26984)"
   style="stroke:#ffffff;stroke-opacity:1">
	<g
   id="g3407"
   style="stroke:#ffffff;stroke-opacity:1">
		<path
   d="M 300.194,129.887 287.012,11.641 C 286.273,5.013 280.67,0 274.002,0 h -152.16 c -6.668,0 -12.271,5.013 -13.01,11.641 l -13.18,118.247 c -3.534,31.716 4.55,59.603 23.378,80.646 16.427,18.358 38.085,28.334 57.075,32.606 v 109.07 h -21.381 c -12.048,0 -21.815,9.769 -21.815,21.815 0,12.049 9.768,21.816 21.815,21.816 h 86.395 c 12.049,0 21.814,-9.769 21.814,-21.816 0,-12.049 -9.768,-21.815 -21.814,-21.815 H 219.737 V 243.082 c 19.013,-4.316 40.651,-14.323 57.078,-32.682 18.82,-21.033 26.904,-48.873 23.379,-80.513 z M 150.15,189.529 c -1.76,1.574 -3.955,2.348 -6.143,2.348 -2.531,0 -5.052,-1.037 -6.872,-3.071 -14.192,-15.862 -20.308,-36.7 -17.683,-60.258 0.564,-5.06 5.124,-8.7 10.182,-8.14 5.059,0.564 8.703,5.122 8.139,10.181 -2.027,18.201 2.502,34.082 13.1,45.926 3.393,3.793 3.07,9.62 -0.723,13.014 z m 40.42,16.621 c -0.965,4.284 -4.771,7.194 -8.983,7.194 -0.67,0 -1.352,-0.073 -2.032,-0.227 -6.128,-1.379 -12.102,-3.435 -17.757,-6.104 -4.603,-2.174 -6.568,-7.668 -4.396,-12.271 2.175,-4.602 7.668,-6.57 12.271,-4.396 4.435,2.095 9.119,3.705 13.932,4.788 4.963,1.119 8.084,6.052 6.965,11.016 z"
   id="path3405"
   style="fill:#ffffff;fill-opacity:1;stroke:none;stroke-opacity:1" />
	</g>
</g></svg>
