<?xml version="1.0" encoding="UTF-8" standalone="no"?>
<!-- Generator: Adobe Illustrator 19.0.0, SVG Export Plug-In . SVG Version: 6.00 Build 0)  -->

<svg
   version="1.1"
   id="Layer_1"
   x="0px"
   y="0px"
   viewBox="0 0 504 504"
   style="enable-background:new 0 0 504 504;"
   xml:space="preserve"
   xmlns="http://www.w3.org/2000/svg" >
<circle
   style="fill:#e57300;fill-opacity:1"
   cx="252"
   cy="252"
   r="252"
   id="circle17180" /><circle
   style="fill:#ffa01a;fill-opacity:1;stroke-width:0.934372"
   cx="252"
   cy="252"
   r="235.46167"
   id="circle17180-7" />
<path
   d="m 356.71607,206.71289 c -15.81099,14.58771 -26.78433,32.30951 -30.79626,50.20348 -1.17912,5.27033 -5.85819,8.85298 -11.0413,8.85298 -0.82119,0 -1.65257,-0.0906 -2.48622,-0.27751 -6.10511,-1.36712 -9.94374,-7.42581 -8.5766,-13.52752 4.35059,-19.41062 15.22652,-39.08629 31.60158,-56.05827 -10.53952,-4.50691 -21.73373,-8.13939 -33.42745,-10.84875 -7.83584,3.82164 -14.48576,7.95703 -19.94978,11.89307 -22.21966,15.99449 -37.80524,37.85055 -42.76295,59.966 -1.18138,5.27033 -5.85819,8.85298 -11.0413,8.85298 -0.82119,0 -1.65257,-0.0906 -2.48622,-0.27751 -6.10624,-1.36712 -9.94374,-7.42581 -8.57661,-13.52752 5.80269,-25.88725 23.21528,-52.25815 49.81158,-72.04369 -4.93959,-0.32281 -9.93354,-0.49951 -14.9796,-0.49951 -5.73586,0 -11.3981,0.23673 -16.99237,0.65242 -13.01668,4.9815 -23.48032,11.14324 -31.44415,16.87683 -22.22078,15.99449 -37.80637,37.85055 -42.76182,59.966 -1.18137,5.27033 -5.85818,8.85298 -11.04356,8.85298 -0.81892,0 -1.65257,-0.0906 -2.48622,-0.27751 -6.10398,-1.36712 -9.94374,-7.42581 -8.57434,-13.52752 4.44914,-19.85463 15.72491,-39.98903 32.73087,-57.22266 -37.80411,15.45646 -67.64099,41.7696 -83.285484,75.1744 -5.57275,11.89421 -4.6768,25.81476 2.37749,36.89684 7.05202,11.08208 19.279224,17.76598 32.414844,17.76598 h 258.13061 c 13.12995,0 25.34583,-6.70656 32.39672,-17.78184 7.04863,-11.07641 7.96383,-24.9913 2.39561,-36.88324 -12.14226,-25.9201 -32.82714,-47.57342 -59.14707,-63.20091 z"
   id="path148"
   style="fill:#ffffff;fill-opacity:1;stroke-width:1.13267" /></svg>
