<?xml version="1.0" encoding="UTF-8" standalone="no"?>
<!-- Generator: Adobe Illustrator 19.0.0, SVG Export Plug-In . SVG Version: 6.00 Build 0)  -->

<svg
   version="1.1"
   id="Layer_1"
   x="0px"
   y="0px"
   viewBox="0 0 504 504"
   style="enable-background:new 0 0 504 504;"
   xml:space="preserve"
   xmlns="http://www.w3.org/2000/svg" >
<circle
   style="fill:#e57300;fill-opacity:1"
   cx="252"
   cy="252"
   r="252"
   id="circle17180" /><circle
   style="fill:#ffa01a;fill-opacity:1;stroke-width:0.934372"
   cx="252"
   cy="252"
   r="235.46167"
   id="circle17180-7" />
<g
   id="g1892"
   transform="matrix(0.48947839,0,0,0.48947839,109.30481,109.30492)"
   style="fill:#ffffff;fill-opacity:1">
	<g
   id="Layer_1_37_"
   style="fill:#ffffff;fill-opacity:1">
		<g
   id="g1889"
   style="fill:#ffffff;fill-opacity:1">
			<path
   d="m 217.575,231.15 c 30.6,-49.725 73.95,-87.975 122.399,-108.375 C 297.9,42.45 221.4,-4.725 148.725,0.375 c 33.15,36.975 61.2,100.725 66.3,206.55 1.275,8.925 2.55,16.575 2.55,24.225 z"
   id="path1881"
   style="fill:#ffffff;fill-opacity:1" />
			<path
   d="M 152.55,210.75 C 147.45,93.45 110.475,45 81.15,24.6 9.75,71.775 -17.025,180.15 19.95,282.15 c 29.325,79.05 89.25,133.874 153,151.725 -3.825,-30.601 -3.825,-62.476 2.55,-94.351 C 164.025,302.55 155.1,260.475 152.55,210.75 Z"
   id="path1883"
   style="fill:#ffffff;fill-opacity:1" />
			<path
   d="m 501.9,168.675 c -29.325,20.4 -66.301,68.85 -71.4,184.875 -5.1,105.825 -36.975,178.5 -77.775,228.225 5.101,0 10.2,1.275 15.301,1.275 79.05,0 159.375,-62.475 195.074,-156.825 36.975,-103.275 10.2,-210.375 -61.2,-257.55 z"
   id="path1885"
   style="fill:#ffffff;fill-opacity:1" />
			<path
   d="m 433.05,145.725 c -3.825,0 -7.649,0 -12.75,0 -79.05,0 -159.375,61.2 -195.075,156.825 -38.25,103.275 -10.2,210.375 61.2,257.55 39.525,-40.8 75.226,-104.55 79.05,-207.825 6.375,-107.1 34.425,-169.575 67.575,-206.55 z"
   id="path1887"
   style="fill:#ffffff;fill-opacity:1" />
		</g>
	</g>
</g></svg>
