<?xml version="1.0" encoding="UTF-8" standalone="no"?>
<!-- Generator: Adobe Illustrator 19.0.0, SVG Export Plug-In . SVG Version: 6.00 Build 0)  -->

<svg
   version="1.1"
   id="Layer_1"
   x="0px"
   y="0px"
   viewBox="0 0 504 504"
   style="enable-background:new 0 0 504 504;"
   xml:space="preserve"
   xmlns="http://www.w3.org/2000/svg" >
<circle
   style="fill:#e57300;fill-opacity:1"
   cx="252"
   cy="252"
   r="252"
   id="circle17180" /><circle
   style="fill:#ffa01a;fill-opacity:1;stroke-width:0.934372"
   cx="252"
   cy="252"
   r="235.46167"
   id="circle17180-7" />
<g
   id="g156"
   transform="matrix(0.32290959,0,0,0.32290959,101.2305,101.23023)"
   style="fill:#ffffff;fill-opacity:1">
	<g
   id="g152"
   style="fill:#ffffff;fill-opacity:1">
		<path
   d="m 181.349,660.142 c -7.2,0.8 -14.4,1.2 -21.6,1.2 -20.1,0 -42.4,-3.7 -62.5,-10.3 l 47.6,210.1 c 4.1,18.2 20.3,31.2 39,31.2 h 551.2 c 18.7,0 34.9,-12.9 39,-31.2 l 46.6,-205.8 c -15.3,3.9 -30.899,6 -46.3,6 -12.2,0 -24.3,-1.2 -36.2,-3.5 l -35,154.5 h -56.1 l 31.8,-158.1 c -13.7,3.8 -27.899,6.199 -42.2,6.899 l -30.399,151.2 h -61.3 l 7.199,-166.4 c -1.699,-0.699 -3.3,-1.399 -5,-2.199 -11.399,5.3 -23.3,9.399 -35.5,12.3 l -6.8,156.3 h -84.8 l -6.8,-158.8 c -6.7,-2 -13.3,-4.3 -19.7,-7 -6.6,2.8 -13.4,5.1 -20.3,7.1 l 6.8,158.601 h -67.2 l -31.1,-154.9 c -14.4,-2.9 -28.5,-7.5 -41.8,-13.7 -0.5,0.2 -1.1,0.5 -1.6,0.7 l 33.6,168 h -56.1 z"
   id="path148"
   style="fill:#ffffff;fill-opacity:1" />
		<path
   d="m 89.249,615.542 c 3.6,1.7 7.2,3.3 10.9,4.7 18.2,6.899 40.1,11.1 59.6,11.1 5,0 10,-0.2 15,-0.7 20.5,-1.899 39.9,-7.7 57.4,-16.5 2.6,-1.3 5.2,-2.7 7.7,-4.1 11,6.3 22.8,11.399 35.3,15 14.2,4.1 29.2,6.399 44.801,6.399 18.199,0 35.6,-3 51.899,-8.6 7.5,-2.6 14.7,-5.7 21.601,-9.2 5.899,3.101 12,5.7 18.3,8.101 17.2,6.3 35.8,9.8 55.2,9.8 16,0 31.399,-2.3 45.899,-6.7 12,-3.6 23.5,-8.5 34.2,-14.7 2.1,1.2 4.2,2.3 6.3,3.5 22.101,11.4 47.101,17.9 73.7,17.9 5.2,0 10.4,-0.3 15.5,-0.8 15,-1.4 29.4,-5 42.9,-10.2 5.199,-2 10.3,-4.3 15.199,-6.9 13.601,7 28.4,12.2 44,15.101 9.601,1.8 19.5,2.699 29.601,2.699 18.3,0 36.6,-3.399 54,-9.699 45.3,-16.4 84.2,-52.301 98,-98.801 8,-27 9.1,-52.699 5.899,-80.399 -6.6,-57.3 -22.8,-113.9 -48.199,-165.7 -38.101,-77.6 -98.601,-142.1 -175.801,-181.7 -118.199,-60.7 -270.3,-67.4 -397.6,-32.7 -86.5,23.6 -163.8,72.6 -218,144.4 -39.8,52.7 -66.4,114.8 -81.1,179.1 -4.5,19.601 -7.9,39.5 -10.1,59.5 -4,37 0.3,77.4 21,109 16.301,24.998 39.701,47.799 66.901,61.099 z m 471.899,-404.4 76.7,-55.5 c 9,-6.5 21.5,-4.5 27.9,4.5 6.5,8.9 4.5,21.5 -4.5,27.9 l -76.7,55.5 c -3.5,2.6 -7.6,3.8 -11.7,3.8 -6.2,0 -12.3,-2.9 -16.2,-8.3 -6.5,-8.9 -4.399,-21.4 4.5,-27.9 z m -68.899,62 c 6.5,8.9 4.5,21.5 -4.5,27.9 l -76.7,55.5 c -3.5,2.6 -7.6,3.8 -11.7,3.8 -6.2,0 -12.3,-2.9 -16.2,-8.3 -6.5,-8.9 -4.5,-21.5 4.5,-27.9 l 76.7,-55.5 c 8.9,-6.4 21.4,-4.4 27.9,4.5 z m -118.8,-62 76.699,-55.5 c 8.9,-6.5 21.5,-4.5 27.9,4.5 6.5,8.9 4.5,21.5 -4.5,27.9 l -76.7,55.5 c -3.5,2.6 -7.6,3.8 -11.7,3.8 -6.199,0 -12.3,-2.9 -16.199,-8.3 -6.4,-8.9 -4.4,-21.4 4.5,-27.9 z m -173.6,113 76.7,-55.5 c 9,-6.5 21.5,-4.5 27.9,4.5 6.399,9 4.5,21.5 -4.5,27.9 l -76.7,55.5 c -3.5,2.6 -7.6,3.8 -11.7,3.8 -6.2,0 -12.3,-2.9 -16.2,-8.3 -6.4,-8.9 -4.4,-21.4 4.5,-27.9 z"
   id="path150"
   style="fill:#ffffff;fill-opacity:1" />
	</g>
	<path
   d="m 467.049,42.942 c -4,0 -7.9,0 -11.8,0.1 l 32.6,0.2 c -6.9,-0.2 -13.8,-0.3 -20.8,-0.3 z"
   id="path154"
   style="fill:#ffffff;fill-opacity:1" />
</g></svg>
