<?xml version="1.0" encoding="UTF-8" standalone="no"?>
<!-- Generator: Adobe Illustrator 19.0.0, SVG Export Plug-In . SVG Version: 6.00 Build 0)  -->

<svg
   version="1.1"
   id="Layer_1"
   x="0px"
   y="0px"
   viewBox="0 0 504 504"
   style="enable-background:new 0 0 504 504;"
   xml:space="preserve"
   xmlns="http://www.w3.org/2000/svg" >
<circle
   style="fill:#1256b2;fill-opacity:1"
   cx="252"
   cy="252"
   r="252"
   id="circle17180" /><circle
   style="fill:#1a7aff;fill-opacity:1;stroke-width:0.934372"
   cx="252"
   cy="252"
   r="235.46167"
   id="circle17180-7" />
<path
   d="m 188.73683,312.78955 c 0,20.3215 -16.44437,36.76586 -36.76587,36.76586 -20.32149,0 -36.76586,-16.44436 -36.76586,-36.76586 0,-20.3215 16.44437,-36.76586 36.76586,-36.76586 20.3215,0 36.76587,16.44436 36.76587,36.76586 z m -18.71717,0 c 0,-9.89336 -8.15534,-18.04869 -18.0487,-18.04869 -9.89336,0 -18.0487,8.15533 -18.0487,18.04869 0,9.89337 8.15534,18.0487 18.0487,18.0487 9.89336,0 18.0487,-8.15533 18.0487,-18.0487 z m 220.72888,0 c 0,20.3215 -16.44437,36.76586 -36.76586,36.76586 -20.3215,0 -36.76588,-16.44436 -36.76588,-36.76586 0,-20.3215 16.44438,-36.76586 36.76588,-36.76586 20.32149,0 36.76586,16.44436 36.76586,36.76586 z m -18.71717,0 c 0,-9.89336 -8.15534,-18.04869 -18.04869,-18.04869 -9.89337,0 -18.04871,8.15533 -18.04871,18.04869 0,9.89337 8.15534,18.0487 18.04871,18.0487 9.89335,0 18.04869,-8.15533 18.04869,-18.0487 z m 48.93203,-32.75504 h -7.75426 v 0 -37.56803 c 0,-11.76508 -9.49228,-21.25735 -21.39105,-21.25735 h -34.76045 c -0.80217,0 -1.60434,-0.40109 -2.13911,-0.93586 l -59.49385,-65.51008 c -2.67388,-2.67389 -6.41732,-4.27822 -10.29444,-4.41191 H 173.4957 c -9.09119,0 -16.84545,5.88254 -20.1878,14.17157 l -25.66926,54.27978 c -0.26738,1.33695 -1.47063,2.27281 -2.94127,2.27281 v 0 c -13.3694,0.13369 -32.353954,0.13369 -32.353954,24.466 v 31.41811 c 0,1.60432 -1.336942,2.94127 -2.94127,2.94127 h -4.812985 c -1.60433,0 -2.94127,1.33693 -2.94127,2.94127 v 10.02705 c 0,7.48687 6.149926,13.63679 13.636793,13.63679 h 5.481456 c 1.47063,0 2.67388,-1.06955 2.94127,-2.40649 4.01082,-22.99538 24.19863,-40.64299 48.39724,-40.64299 24.19862,0 44.25274,17.51392 48.26356,40.5093 0.26738,1.47063 1.47063,2.40649 2.94126,2.40649 h 99.46838 c 1.47063,0 2.67388,-1.06955 2.94127,-2.40649 4.01082,-22.99538 24.06493,-40.5093 48.26356,-40.5093 24.19862,0 44.25272,17.51392 48.26354,40.5093 0.2674,1.47063 1.47064,2.40649 2.94128,2.40649 h 5.08037 c 7.62056,0 13.63679,-6.14992 13.63679,-13.63679 v -9.89336 c 0,-1.47064 -1.33694,-2.80758 -2.94126,-2.80758 z m -200.54108,-62.8362 c 0,1.60432 -1.33695,2.80757 -2.80758,2.80757 h -65.24269 c -1.87172,0 -3.20867,-1.73802 -2.80758,-3.47604 l 18.85086,-45.1886 c 0.53478,-2.27279 2.4065,-4.01082 4.81298,-4.01082 h 44.38643 c 1.60433,0 2.80758,1.33695 2.80758,2.80758 z m 102.81072,2.00541 h -79.14688 c -1.47064,0 -2.80757,-1.20325 -2.80757,-2.80758 v -45.45598 c 0,-1.47064 1.20324,-2.80757 2.80757,-2.80757 h 39.17236 c 0.80217,0 1.47064,0.26738 2.00541,0.93586 l 39.97452,45.45598 c 1.60433,1.87171 0.40108,4.67929 -2.00541,4.67929 z"
   id="path148"
   style="stroke-width:1.33694;fill:#fefefe;fill-opacity:1" /></svg>
