<?xml version="1.0" encoding="UTF-8" standalone="no"?>
<!-- Generator: Adobe Illustrator 19.0.0, SVG Export Plug-In . SVG Version: 6.00 Build 0)  -->

<svg
   version="1.1"
   id="Layer_1"
   x="0px"
   y="0px"
   viewBox="0 0 504 504"
   style="enable-background:new 0 0 504 504;"
   xml:space="preserve"
   xmlns="http://www.w3.org/2000/svg" >
<circle
   style="fill:#008099;fill-opacity:1"
   cx="252"
   cy="252"
   r="252"
   id="circle17180" /><circle
   style="fill:#14adcc;fill-opacity:1;stroke-width:0.934372"
   cx="252"
   cy="252"
   r="235.46167"
   id="circle17180-7" />
<path
   d="M 411.321,216.6905 370,183.0135 v -53.859 c 0,-6.065 -4.935,-11 -11,-11 h -26 c -6.065,0 -11,4.935 -11,11 v 14.737 l -55.213,-44.999 c -3.994,-3.254 -9.258,-5.047 -14.822,-5.047 -5.542,0 -10.781,1.782 -14.753,5.019 L 92.679,216.6895 c -6.567,5.351 -6.173,10.012 -5.354,12.314 0.817,2.297 3.448,6.151 11.884,6.151 H 119 v 154.947 c 0,11.058 8.972,20.053 20,20.053 h 62.5 c 10.935,0 19.5,-8.809 19.5,-20.053 v -63.541 c 0,-5.446 5.005,-10.405 10.5,-10.405 h 42 c 5.238,0 9.5,4.668 9.5,10.405 v 63.541 c 0,10.87 9.388,20.053 20.5,20.053 H 365 c 11.028,0 20,-8.996 20,-20.053 v -154.947 h 19.791 c 8.436,0 11.066,-3.854 11.884,-6.151 0.819,-2.302 1.213,-6.963 -5.354,-12.313 z"
   id="path4345"
   style="fill:#ffffff;fill-opacity:1" /></svg>
