<?xml version="1.0" encoding="UTF-8" standalone="no"?>
<!-- Generator: Adobe Illustrator 19.0.0, SVG Export Plug-In . SVG Version: 6.00 Build 0)  -->

<svg
   version="1.1"
   id="Layer_1"
   x="0px"
   y="0px"
   viewBox="0 0 504 504"
   style="enable-background:new 0 0 504 504;"
   xml:space="preserve"
   xmlns="http://www.w3.org/2000/svg" >
<circle
   style="fill:#008099;fill-opacity:1"
   cx="252"
   cy="252"
   r="252"
   id="circle17180" /><circle
   style="fill:#14adcc;fill-opacity:1;stroke-width:0.934372"
   cx="252"
   cy="252"
   r="235.46167"
   id="circle17180-7" />
<g
   id="g287"
   transform="matrix(10.937526,0,0,10.937526,107.08431,107.08325)"
   style="fill:#ffffff;fill-opacity:1">
	<g
   id="g285"
   style="fill:#ffffff;fill-opacity:1">
		<path
   d="M 26.394,22.189 24.683,15.772 V 4.162 c 0,-1.778 -1.446,-3.225 -3.225,-3.225 H 5.041 c -1.778,0 -3.225,1.446 -3.225,3.225 V 15.773 L 0.105,22.19 c -0.229,0.86 -0.078,1.722 0.415,2.362 0.493,0.642 1.286,1.01 2.176,1.01 h 21.107 c 0.89,0 1.683,-0.368 2.176,-1.01 0.492,-0.641 0.644,-1.502 0.415,-2.363 z M 5.041,2.695 h 16.417 c 0.808,0 1.466,0.657 1.466,1.466 V 15.479 H 3.575 V 4.162 c 0,-0.808 0.656,-1.467 1.466,-1.467 z m 19.543,20.786 c -0.16,0.207 -0.438,0.322 -0.781,0.322 H 2.694 C 2.35,23.803 2.072,23.688 1.913,23.481 1.754,23.273 1.714,22.975 1.803,22.643 l 1.741,-6.527 0.006,-0.05 h 19.397 l 0.006,0.05 1.74,6.527 c 0.09,0.333 0.05,0.63 -0.109,0.838 z"
   id="path279"
   style="fill:#ffffff;fill-opacity:1" />
		<path
   d="m 5.041,14.618 h 16.417 c 0.321,0 0.586,-0.265 0.586,-0.586 V 4.21 c 0,-0.322 -0.265,-0.586 -0.586,-0.586 H 5.041 c -0.322,0 -0.586,0.264 -0.586,0.586 v 9.822 c 0,0.322 0.263,0.586 0.586,0.586 z"
   id="path281"
   style="fill:#ffffff;fill-opacity:1" />
		<polygon
   points="8.682,22.65 17.229,22.65 16.595,19.741 9.315,19.741 "
   id="polygon283"
   style="fill:#ffffff;fill-opacity:1" />
	</g>
</g></svg>
