<?xml version="1.0" encoding="UTF-8" standalone="no"?>
<!-- Generator: Adobe Illustrator 19.0.0, SVG Export Plug-In . SVG Version: 6.00 Build 0)  -->

<svg
   version="1.1"
   id="Layer_1"
   x="0px"
   y="0px"
   viewBox="0 0 504 504"
   style="enable-background:new 0 0 504 504;"
   xml:space="preserve"
   xmlns="http://www.w3.org/2000/svg">
<circle
   style="fill:#e53900;fill-opacity:1"
   cx="252"
   cy="252"
   r="252"
   id="circle17180" /><circle
   style="fill:#ff531a;fill-opacity:1;stroke-width:0.934372"
   cx="252"
   cy="252"
   r="235.46167"
   id="circle17180-7" />
<path
   style="fill:#ffffff;fill-opacity:1;stroke-width:2.26009"
   d="m 113.54688,192.76529 h 79.40827 v -79.18903 c 0,-10.91624 8.84147,-19.778042 19.7577,-19.778042 h 79.03083 c 10.89816,0 19.73737,8.859542 19.73737,19.778042 v 79.17095 h 78.99241 c 10.93658,0 19.77805,8.84148 19.77805,19.77805 v 79.13028 c 0,10.95691 -8.84147,19.81647 -19.77805,19.81647 h -78.99241 v 78.95172 c 0,10.93658 -8.84147,19.77805 -19.73737,19.77805 h -79.03083 c -10.91623,0 -19.7577,-8.84147 -19.7577,-19.77805 v -78.95172 h -79.40827 c -10.93658,0 -19.798389,-8.85956 -19.798389,-19.81647 v -79.13028 c 0,-10.91849 8.861809,-19.75997 19.798389,-19.75997 z"
   id="path334" /></svg>
