<?xml version="1.0" encoding="UTF-8" standalone="no"?>
<!-- Generator: Adobe Illustrator 19.0.0, SVG Export Plug-In . SVG Version: 6.00 Build 0)  -->

<svg
   version="1.1"
   id="Layer_1"
   x="0px"
   y="0px"
   viewBox="0 0 504 504"
   style="enable-background:new 0 0 504 504;"
   xml:space="preserve"
   xmlns="http://www.w3.org/2000/svg" >
<circle
   style="fill:#008099;fill-opacity:1"
   cx="252"
   cy="252"
   r="252"
   id="circle17180" /><circle
   style="fill:#14adcc;fill-opacity:1;stroke-width:0.934372"
   cx="252"
   cy="252"
   r="235.46167"
   id="circle17180-7" />
<g
   id="g150"
   transform="matrix(0.49124404,0,0,0.49124404,101.67943,101.67957)"
   style="fill:#ffffff;fill-opacity:1">
	<path
   d="m 281.951,565.215 c 0,23.964 -19.495,43.458 -43.458,43.458 -23.963,0 -43.458,-19.495 -43.458,-43.458 0,-23.963 19.495,-43.458 43.458,-43.458 23.963,0 43.458,19.491 43.458,43.458 z m 226.102,-43.459 c -23.963,0 -43.458,19.495 -43.458,43.458 0,23.964 19.495,43.458 43.458,43.458 23.963,0 43.458,-19.495 43.458,-43.458 0,-23.963 -19.495,-43.458 -43.458,-43.458 z M 608.397,146.301 c -2.95,-3.547 -7.325,-5.598 -11.937,-5.604 L 132.983,140.199 102.205,15.166 C 100.49,8.214 94.255,3.326 87.098,3.326 H 15.559 C 6.964,3.326 0,10.29 0,18.885 0,27.48 6.964,34.444 15.559,34.444 H 74.9 l 88.591,359.9 13.296,62.673 c 5.386,25.407 28.149,43.847 54.122,43.847 h 299.716 c 8.595,0 15.559,-6.964 15.559,-15.559 0,-8.595 -6.964,-15.559 -15.559,-15.559 H 230.909 c -11.364,0 -21.325,-8.069 -23.677,-19.187 l -9.36,-44.124 h 355.646 c 7.512,0 13.95,-5.371 15.304,-12.761 l 42.923,-234.622 c 0.831,-4.536 -0.395,-9.21 -3.348,-12.751 z"
   id="path148"
   style="fill:#ffffff;fill-opacity:1" />
</g></svg>
