<?xml version="1.0" encoding="UTF-8" standalone="no"?>
<!-- Generator: Adobe Illustrator 19.0.0, SVG Export Plug-In . SVG Version: 6.00 Build 0)  -->

<svg
   version="1.1"
   id="Layer_1"
   x="0px"
   y="0px"
   viewBox="0 0 512 512"
   style="enable-background:new 0 0 512 512;"
   xml:space="preserve"
   xmlns="http://www.w3.org/2000/svg">
<circle
   style="fill:#ffffff;fill-opacity:1"
   cx="256"
   cy="256"
   r="256"
   id="circle148" />

<g
   transform="matrix(17.969394,0,0,-17.969394,58.846973,303.34757)"
   id="g9031"><path
     id="path9033"
     style="fill:#d71920;fill-opacity:1;fill-rule:nonzero;stroke:none"
     d="M 0,0 0.018,0.046 0.071,0.19 0.123,0.32 0.146,0.38 c 0.251,0.619 0.567,1.256 0.95,1.901 0.05,0.107 0.102,0.212 0.154,0.318 L -0.362,2.595 0.029,3.459 C 1.361,3.822 3.58,4.564 5.698,6.618 L 5.761,6.622 H 6.876 L 5.434,3.532 7.75,3.539 7.325,2.619 5.013,2.611 c 0,0 -1.085,-2.168 -1.453,-3.719 -0.285,-1.731 -0.005,-3.023 1.546,-3.507 0.958,-0.297 2.153,-0.229 3.441,0.136 2.997,0.933 6.201,2.994 8.545,5.721 3.859,4.483 3.934,9.07 0.171,10.241 -2.415,0.75 -5.82,-0.084 -8.971,-1.962 3.929,2.534 8.249,3.724 11.23,2.796 0.559,-0.174 1.043,-0.414 1.455,-0.71 -2.463,2.715 -6.019,4.419 -9.973,4.419 -7.43,0 -13.456,-6.025 -13.456,-13.456 0,-2.744 0.823,-5.295 2.232,-7.423 C -0.753,-3.538 -0.678,-1.851 0,0" /></g><g
   transform="matrix(17.969394,0,0,-17.969394,461.61815,128.89528)"
   id="g9035"><path
     id="path9037"
     style="fill:#d71920;fill-opacity:1;fill-rule:nonzero;stroke:none"
     d="m 0,0 c 0.9,-2.445 -0.226,-6.094 -3.334,-9.706 -4.666,-5.426 -12.037,-8.707 -16.461,-7.33 -0.549,0.171 -1.026,0.406 -1.433,0.697 2.455,-2.62 5.945,-4.256 9.818,-4.256 7.433,0 13.458,6.024 13.458,13.456 C 2.048,-4.515 1.295,-2.069 0,0" /></g></svg>
