<?xml version="1.0" encoding="iso-8859-1"?>
<!-- Generator: Adobe Illustrator 16.0.0, SVG Export Plug-In . SVG Version: 6.00 Build 0)  -->
<!DOCTYPE svg PUBLIC "-//W3C//DTD SVG 1.1//EN" "http://www.w3.org/Graphics/SVG/1.1/DTD/svg11.dtd">
<svg version="1.1" xmlns="http://www.w3.org/2000/svg" xmlns:xlink="http://www.w3.org/1999/xlink" x="0px" y="0px" width="512px"
	 height="512px" viewBox="0 0 512 512" style="enable-background:new 0 0 512 512;" xml:space="preserve">
<g id="Guides_For_Artboard">
</g>
<g id="Artwork">
</g>
<g id="Layer_3">
	<g>
		<path style="fill:#D46A56;" d="M255.116,14.639c-135.31,0-245,109.69-245,245s109.69,245,245,245c135.309,0,245-109.69,245-245
			S390.425,14.639,255.116,14.639z"/>
		<g>
			<path style="fill:#664B3A;" d="M296.886,120.252h-83.54c-23.638,0-44.657,11.148-58.129,28.461h199.798
				C341.542,131.4,320.522,120.252,296.886,120.252z"/>
			<polygon style="fill:#FFFFFF;" points="152.103,238.744 152.146,239.083 358.085,239.083 358.14,238.654 361.989,204.766 
				148.241,204.766 			"/>
			<path style="fill:#FFFFFF;" d="M171.29,392.014c0.501,4.006,3.907,7.013,7.945,7.013h151.76c4.039,0,7.445-3.006,7.947-7.013
				l2.963-23.667H168.327L171.29,392.014z"/>
			<path style="fill:#735542;" d="M362.358,148.713h-7.344H155.217h-7.344c-15.479,0-28.026,12.547-28.026,28.026
				s12.547,28.026,28.026,28.026h0.368h213.749h0.369c15.479,0,28.027-12.547,28.027-28.026S377.837,148.713,362.358,148.713z"/>
			<polygon style="fill:#E6A52E;" points="168.327,368.347 341.905,368.347 358.085,239.083 152.146,239.083 			"/>
		</g>
	</g>
</g>
</svg>
