<?xml version="1.0" encoding="iso-8859-1"?>
<!-- Generator: Adobe Illustrator 19.0.0, SVG Export Plug-In . SVG Version: 6.00 Build 0)  -->
<svg version="1.1" id="Layer_1" xmlns="http://www.w3.org/2000/svg" xmlns:xlink="http://www.w3.org/1999/xlink" x="0px" y="0px"
	 viewBox="0 0 297 297" style="enable-background:new 0 0 297 297;" xml:space="preserve">
<g>
	<g>
		<g>
			<circle style="fill:#4F2B4F;" cx="148.5" cy="148.5" r="148.5"/>
		</g>
	</g>
	<path style="fill:#462147;" d="M208.119,95.276L98.191,224.991l70.62,70.62c61.76-8.449,111.42-54.865,124.687-114.956
		L208.119,95.276z"/>
	<g>
		<path style="fill:#EF717A;" d="M219.5,147.929l-18.004,72.015c-1.341,5.364-6.161,9.128-11.69,9.128h-82.612
			c-5.529,0-10.349-3.763-11.69-9.128L77.5,147.929H219.5z"/>
	</g>
	<g>
		<path style="fill:#F0DEB4;" d="M69.5,141.541c0-38.959,35.37-70.541,79-70.541s79,31.582,79,70.541s-35.37,17.635-79,17.635
			S69.5,180.5,69.5,141.541z"/>
	</g>
	<g>
		<path style="fill:#D5C295;" d="M148.5,71c-43.368,0-78.559,31.208-78.98,69.843c7.123,3.336,14.731,5.23,21.98,5.657
			c42,1,84,0,128-8c2.786-0.619,5.38-1.624,7.694-2.98C223.769,99.382,189.857,71,148.5,71z"/>
	</g>
	<g>
		<circle style="fill:#C63C22;" cx="148.5" cy="66" r="16.5"/>
	</g>
	<g>
		<path style="fill:#D95459;" d="M148.167,147.929v81.143h41.639c5.529,0,10.349-3.763,11.69-9.128l18.004-72.015L148.167,147.929
			L148.167,147.929z"/>
	</g>
	<g>
		<path style="fill:#D8C49A;" d="M148.5,71c-0.112,0-0.221,0.007-0.333,0.008v88.171c0.111,0,0.222-0.003,0.333-0.003
			c43.63,0,79,21.324,79-17.635S192.131,71,148.5,71z"/>
	</g>
	<g>
		<path style="fill:#BAA479;" d="M227.194,135.52C223.769,99.382,189.857,71,148.5,71c-0.112,0-0.221,0.007-0.333,0.007v75.174
			c23.393-0.992,47.058-3.268,71.333-7.681C222.286,137.881,224.88,136.876,227.194,135.52z"/>
	</g>
	<g>
		<path style="fill:#A52923;" d="M148.5,49.5c-0.112,0-0.221,0.015-0.333,0.017v32.966c0.112,0.002,0.221,0.017,0.333,0.017
			c9.113,0,16.5-7.387,16.5-16.5S157.613,49.5,148.5,49.5z"/>
	</g>
</g>
<g>
</g>
<g>
</g>
<g>
</g>
<g>
</g>
<g>
</g>
<g>
</g>
<g>
</g>
<g>
</g>
<g>
</g>
<g>
</g>
<g>
</g>
<g>
</g>
<g>
</g>
<g>
</g>
<g>
</g>
</svg>
