<?xml version="1.0" encoding="iso-8859-1"?>
<!-- Generator: Adobe Illustrator 19.0.0, SVG Export Plug-In . SVG Version: 6.00 Build 0)  -->
<svg version="1.1" id="Layer_1" xmlns="http://www.w3.org/2000/svg" xmlns:xlink="http://www.w3.org/1999/xlink" x="0px" y="0px"
	 viewBox="0 0 512 512" style="enable-background:new 0 0 512 512;" xml:space="preserve">
<circle style="fill:#88C5CC;" cx="256" cy="256" r="256"/>
<rect x="124" y="368" style="fill:#242424;" width="48" height="48"/>
<rect x="124" y="368" style="fill:#0D0D0D;" width="48" height="8"/>
<rect x="340" y="368" style="fill:#242424;" width="48" height="48"/>
<rect x="340" y="368" style="fill:#0D0D0D;" width="48" height="8"/>
<rect x="76" y="336" style="fill:#1A1A1A;" width="360" height="32"/>
<rect x="76" y="336" style="fill:#262626;" width="360" height="8"/>
<path style="fill:#F5F5F5;" d="M392,320c0,6.6-5.4,12-12,12h-56c-6.6,0-12-5.4-12-12v-56c0-6.6,5.4-12,12-12h56c6.6,0,12,5.4,12,12
	V320z"/>
<path style="fill:#1A1A1A;" d="M380,336h-56c-8.824,0-16-7.176-16-16v-56c0-8.824,7.176-16,16-16h56c8.824,0,16,7.176,16,16v56
	C396,328.824,388.824,336,380,336z M324,256c-4.416,0-8,3.584-8,8v56c0,4.416,3.584,8,8,8h56c4.416,0,8-3.584,8-8v-56
	c0-4.416-3.584-8-8-8H324z"/>
<path style="fill:#CC584C;" d="M352,288c0,2.2-1.8,4-4,4h-8c-2.2,0-4-1.8-4-4v-8c0-2.2,1.8-4,4-4h8c2.2,0,4,1.8,4,4V288z"/>
<path style="fill:#96E652;" d="M368,288c0,2.2-1.8,4-4,4h-8c-2.2,0-4-1.8-4-4v-8c0-2.2,1.8-4,4-4h8c2.2,0,4,1.8,4,4V288z"/>
<path style="fill:#FFD464;" d="M352,304c0,2.2-1.8,4-4,4h-8c-2.2,0-4-1.8-4-4v-8c0-2.2,1.8-4,4-4h8c2.2,0,4,1.8,4,4V304z"/>
<path style="fill:#C23527;" d="M368,304c0,2.2-1.8,4-4,4h-8c-2.2,0-4-1.8-4-4v-8c0-2.2,1.8-4,4-4h8c2.2,0,4,1.8,4,4V304z"/>
<path style="fill:#1A1A1A;" d="M56.228,416c46.916,58.504,118.948,96,199.772,96s152.856-37.496,199.772-96H56.228z"/>
<path style="fill:#333333;" d="M448.992,424c2.296-2.636,4.592-5.264,6.78-8H56.228c2.188,2.736,4.476,5.364,6.772,8H448.992z"/>
<path style="fill:#242424;" d="M256.344,0.008L137.172,207.832c-2.084,3.66-0.992,8.376,2.584,10.696
	c3.712,2.412,8.664,1.348,11.072-2.36L289.572,2.256C278.688,0.836,267.608,0.024,256.344,0.008z"/>
<path style="fill:#333333;" d="M256.344,0.008L137.172,207.832c-1.056,1.84-1.288,3.94-0.824,5.876L268.16,0.308
	C264.244,0.124,260.304,0.016,256.344,0.008z"/>
<path style="fill:#242424;" d="M356.572,20.536L209.148,279.884c-2.084,3.696-0.944,8.424,2.68,10.72
	c3.744,2.372,8.676,1.252,11.04-2.484l160.68-254.048C374.844,29.064,365.86,24.508,356.572,20.536z"/>
<path style="fill:#333333;" d="M356.572,20.536L209.148,279.884c-1.712,3.016-1.236,6.696,0.952,9.204
	c0.264-0.304,0.544-0.608,0.756-0.96l158.5-261.664C365.152,24.384,360.9,22.392,356.572,20.536z"/>
<path style="fill:#F5F5F5;" d="M236.86,208.728c5.612,3.476,7.368,10.916,3.892,16.524l-29.476,47.608
	c-3.468,5.612-10.908,7.368-16.516,3.892l-47.608-29.476c-5.612-3.468-7.368-10.908-3.892-16.516l29.468-47.612
	c3.476-5.612,10.916-7.372,16.524-3.896L236.86,208.728z"/>
<path style="fill:#1A1A1A;" d="M244.148,227.352l-29.476,47.612c-4.64,7.508-14.52,9.832-22.024,5.184l-47.612-29.476
	c-7.504-4.64-9.832-14.52-5.184-22.028l29.476-47.612c4.64-7.504,14.52-9.828,22.024-5.184l47.612,29.476
	C246.472,209.968,248.796,219.848,244.148,227.352z M146.652,232.86c-2.324,3.752-1.16,8.696,2.588,11.012l47.608,29.476
	c3.752,2.32,8.696,1.156,11.012-2.588l29.476-47.608c2.324-3.752,1.16-8.692-2.588-11.012l-47.608-29.476
	c-3.752-2.324-8.696-1.16-11.012,2.588L146.652,232.86z"/>
<path style="fill:#CC584C;" d="M188.592,225.9c1.876,1.156,2.452,3.632,1.296,5.508l-4.216,6.796
	c-1.156,1.868-3.636,2.452-5.504,1.292l-6.804-4.208c-1.872-1.156-2.444-3.636-1.288-5.508l4.212-6.8
	c1.156-1.88,3.64-2.456,5.508-1.296L188.592,225.9z"/>
<path style="fill:#96E652;" d="M197.02,212.288c1.872,1.156,2.452,3.632,1.296,5.508l-4.216,6.796
	c-1.156,1.876-3.632,2.452-5.508,1.296l-6.796-4.216c-1.868-1.16-2.452-3.628-1.296-5.508l4.212-6.8
	c1.156-1.872,3.636-2.444,5.508-1.288L197.02,212.288z"/>
<path style="fill:#FFD464;" d="M202.204,234.316c1.868,1.156,2.452,3.636,1.292,5.504l-4.208,6.796
	c-1.16,1.876-3.636,2.452-5.508,1.296l-6.8-4.216c-1.872-1.152-2.452-3.628-1.296-5.504l4.216-6.796
	c1.156-1.876,3.632-2.452,5.508-1.296L202.204,234.316z"/>
<path style="fill:#C23527;" d="M210.624,220.712c1.872,1.16,2.452,3.636,1.296,5.508l-4.224,6.8
	c-1.152,1.872-3.628,2.452-5.504,1.296l-6.796-4.216c-1.876-1.156-2.452-3.632-1.296-5.508l4.216-6.796
	c1.156-1.876,3.636-2.456,5.504-1.292L210.624,220.712z"/>
<g>
</g>
<g>
</g>
<g>
</g>
<g>
</g>
<g>
</g>
<g>
</g>
<g>
</g>
<g>
</g>
<g>
</g>
<g>
</g>
<g>
</g>
<g>
</g>
<g>
</g>
<g>
</g>
<g>
</g>
</svg>
